<?xml version="1.0" encoding="iso-8859-1"?>
<!-- Generator: Adobe Illustrator 19.0.0, SVG Export Plug-In . SVG Version: 6.00 Build 0)  -->
<svg version="1.1" id="Layer_1" xmlns="http://www.w3.org/2000/svg" xmlns:xlink="http://www.w3.org/1999/xlink" x="0px" y="0px"
	 viewBox="0 0 507.994 507.994" style="enable-background:new 0 0 507.994 507.994;" xml:space="preserve">
<g>
	<g>
		<path d="M506.797,440.345l-62.7-264c-4.7-19.6-21.9-33.2-42.1-33.2h-59.5v-45.2h92.2c6.1,0,11.5-3.9,13.4-9.6l23.3-69.7
			c2.5-7.4-1.5-15.4-8.9-17.8c-7.4-2.5-15.4,1.5-17.8,8.9l-20,60h-341.9l-20-60.1c-2.5-7.3-10.5-11.3-17.9-8.9
			c-7.4,2.5-11.4,10.5-8.9,17.9l23.3,69.7c1.9,5.8,7.3,9.6,13.4,9.6h92.8v45.1h-59.5c-20.1,0-37.4,13.7-42.1,33.2l-62.7,264
			c-3.1,12.9-0.1,26.3,8.1,36.8c8.3,10.4,20.6,16.4,33.9,16.4h32.5c0,0.1,0,0.3,0,0.4c0,7.8,6.3,14.1,14.1,14.1h37.1
			c7.8,0,14.1-6.3,14.1-14.1c0-0.2,0-0.3,0-0.4h226c0,0.1,0,0.3,0,0.4c0,7.8,6.3,14.1,14.1,14.1h37.1c7.8,0,14.1-6.3,14.1-14.1
			c0-0.2,0-0.3,0-0.4h32.5c13.3,0,25.7-6,33.9-16.4C506.897,466.645,509.897,453.245,506.797,440.345z M193.697,97.945h120.6v45.1
			h-120.6V97.945z M464.697,465.245h-421.4c-15.9,0-15.7-14-14.6-18.5l1.2-5h24.7c7.8,0,14.1-6.3,14.1-14.1
			c0-7.8-6.3-14.1-14.1-14.1h-18l6.7-28.2h52.8c7.8,0,14.1-6.3,14.1-14.1c0-7.8-6.3-14.1-14.1-14.1h-46.1l41.4-174.3
			c1.6-6.8,7.6-11.5,14.6-11.5h296c7,0,13,4.7,14.6,11.5l62.7,264C480.397,451.345,481.497,465.245,464.697,465.245z"/>
	</g>
</g>
<g>
	<g>
		<path d="M253.997,205.545c-62.2,0-112.9,50.6-112.9,112.8s50.6,112.8,112.9,112.8s112.9-50.6,112.9-112.8
			C366.897,256.045,316.197,205.545,253.997,205.545z M253.997,402.845c-46.7,0-84.7-37.9-84.7-84.6c0-46.6,38-84.6,84.7-84.6
			s84.6,37.9,84.6,84.6C338.697,364.845,300.697,402.845,253.997,402.845z"/>
	</g>
</g>
<g>
	<g>
		<path d="M253.997,248.845c-7.8,0-14.1,6.3-14.1,14.1v55.3c0,7.8,6.3,14.1,14.1,14.1c7.8,0,14.1-6.3,14.1-14.1v-55.3
			C268.097,255.145,261.797,248.845,253.997,248.845z"/>
	</g>
</g>
<g>
</g>
<g>
</g>
<g>
</g>
<g>
</g>
<g>
</g>
<g>
</g>
<g>
</g>
<g>
</g>
<g>
</g>
<g>
</g>
<g>
</g>
<g>
</g>
<g>
</g>
<g>
</g>
<g>
</g>
</svg>
