<?xml version="1.0" encoding="iso-8859-1"?>
<!-- Generator: Adobe Illustrator 19.0.0, SVG Export Plug-In . SVG Version: 6.00 Build 0)  -->
<svg version="1.1" id="Layer_1" xmlns="http://www.w3.org/2000/svg" xmlns:xlink="http://www.w3.org/1999/xlink" x="0px" y="0px"
	 viewBox="0 0 298.9 298.9" style="enable-background:new 0 0 298.9 298.9;" xml:space="preserve">
<g>
	<g>
		<g>
			<path d="M149.45,64.05c-23.744,0-45.751,9.499-61.946,26.727C72.379,106.716,64.05,127.554,64.05,149.45
				c0,21.894,8.329,42.73,23.434,58.648c16.211,17.251,38.218,26.752,61.966,26.752s45.755-9.501,61.937-26.72
				c15.13-15.876,23.463-36.715,23.463-58.68c0-21.889-8.329-42.726-23.434-58.652C195.201,73.549,173.194,64.05,149.45,64.05z
				 M222.393,155.55c-1.197,14.463-6.639,28.124-15.72,39.446l-10.21-10.21l-8.627,8.627l10.473,10.472
				c-11.877,10.785-26.725,17.212-42.76,18.513v-15h-12.2v15c-16.027-1.301-30.871-7.724-42.758-18.515l10.471-10.472l-8.627-8.627
				l-10.203,10.203c-9.076-11.344-14.524-25.008-15.725-39.439H91.5v-12.2H76.509c1.201-14.426,6.646-28.086,15.725-39.439
				l10.202,10.202l8.628-8.626l-10.473-10.475c11.879-10.784,26.727-17.211,42.759-18.512v15h12.2V76.501
				c16.026,1.301,30.87,7.725,42.759,18.513l-10.473,10.473l8.628,8.626l10.202-10.204c9.076,11.348,14.525,25.012,15.726,39.441
				H207.4v12.2H222.393z"/>
			<path d="M143.351,149.973L143.351,149.973l-22.614,22.613l8.627,8.627l24.4-24.4c1.144-1.144,1.787-2.696,1.787-4.313v-42.7
				h-12.2V149.973z"/>
			<path d="M280.6,122h-18.047c-1.676-4.088-3.724-8.337-6.299-13.072l11.81-5.865c1.492-0.741,2.617-2.061,3.112-3.653
				c0.495-1.591,0.317-3.317-0.493-4.773l-15.25-27.45c-1.586-2.855-5.14-3.954-8.06-2.494l-13.327,6.664
				c-5.088-7.493-11.719-15.731-20.545-21.926V0h-12.2v42.756c-15.39-6.152-32.966-6.157-47.505-6.157h-8.689
				c-14.539,0-32.115,0.005-47.506,6.158V24.4H183V12.2H97.6V0H85.4v49.432C71.023,59.535,62.06,75.059,53.377,90.106
				C52.816,91.079,39.951,113.239,36.352,122H18.3c-3.368,0-6.1,2.731-6.1,6.1v42.7c0,3.369,2.732,6.1,6.1,6.1h18.049
				c3.589,8.739,16.472,30.93,17.037,31.908c8.68,15.04,17.643,30.557,32.014,40.659V298.9h12.2v-42.759
				c15.398,6.156,32.988,6.161,47.539,6.161h8.625c14.55,0,32.139-0.005,47.537-6.161V274.5H115.9v12.2h85.4v12.2h12.2v-49.437
				c8.2-5.776,14.455-13.249,19.016-19.635l14.857,7.429c0.875,0.437,1.806,0.645,2.724,0.645c2.148,0,4.225-1.139,5.336-3.139
				l15.25-27.45c0.808-1.454,0.987-3.176,0.496-4.765c-0.492-1.589-1.612-2.909-3.1-3.653l-13.099-6.55
				c2.721-4.897,5.346-10.047,7.562-15.445H280.6c3.368,0,6.1-2.731,6.1-6.1v-42.7C286.7,124.731,283.968,122,280.6,122z
				 M24.4,164.7v-30.5h7.986c-1.255,5.237-1.886,10.28-1.886,15.25c0,4.966,0.63,10.004,1.887,15.25H24.4z M247.604,78.218
				l9.312,16.76l-6.671,3.313c-1.039-1.82-7.817-13.568-9.625-16.58L247.604,78.218z M256.924,206.957l-9.32,16.775l-8.366-4.183
				c2.377-3.903,9.091-15.601,9.671-16.6L256.924,206.957z M252.703,168.534c-2.929,8.194-7.244,16.036-11.472,23.292
				c-0.011,0.018-0.021,0.037-0.032,0.054c-1.535,2.698-12.027,20.971-15.475,26.262c-0.095,0.131-0.185,0.266-0.269,0.405
				c-7.161,10.87-13.72,17.8-21.262,22.462c-0.149,0.091-1.321,0.845-1.452,0.925c-13.072,7.565-29.226,8.167-48.978,8.167h-8.625
				c-19.788,0-35.964-0.605-49.048-8.207c-0.036-0.021-1.154-0.744-1.374-0.88c-13.485-8.366-22.269-23.586-30.764-38.304
				c-0.568-0.985-14.434-24.858-17.744-34.146c-2.361-6.833-3.508-13.085-3.508-19.114c0-6.026,1.147-12.279,3.489-19.058
				c3.329-9.344,17.19-33.208,17.756-34.189c8.496-14.724,17.281-29.949,30.77-38.314c0.152-0.095,1.339-0.866,1.375-0.887
				c13.079-7.6,29.243-8.204,49.016-8.204h8.689c19.737,0,35.878,0.601,48.945,8.163c0.12,0.074,1.305,0.841,1.463,0.939
				c10.13,6.233,17.38,16.423,22.588,24.645c2.972,4.61,13.609,23.092,15.672,26.766c0.015,0.028,0.032,0.056,0.048,0.084
				c4.818,8.27,7.962,14.739,10.191,20.972c2.355,6.825,3.498,13.066,3.498,19.083C256.2,155.47,255.056,161.713,252.703,168.534z
				 M274.5,164.7h-7.985c1.255-5.235,1.885-10.279,1.885-15.25c0-4.97-0.631-10.013-1.886-15.25h7.986V164.7z"/>
			<rect x="240.95" y="143.35" width="9.15" height="12.2"/>
			<rect x="48.8" y="143.35" width="9.15" height="12.2"/>
		</g>
	</g>
</g>
<g>
</g>
<g>
</g>
<g>
</g>
<g>
</g>
<g>
</g>
<g>
</g>
<g>
</g>
<g>
</g>
<g>
</g>
<g>
</g>
<g>
</g>
<g>
</g>
<g>
</g>
<g>
</g>
<g>
</g>
</svg>
